<!-- Created with Inkscape (http://www.inkscape.org/) --><svg xmlns:inkscape="http://www.inkscape.org/namespaces/inkscape" xmlns:sodipodi="http://sodipodi.sourceforge.net/DTD/sodipodi-0.dtd" xmlns="http://www.w3.org/2000/svg" xmlns:svg="http://www.w3.org/2000/svg" version="1.1" id="svg1" width="1024" height="1024" viewBox="0 0 1024 1024" sodipodi:docname="Free Aladdin SVG Vector File for Laser Cutting #6.zip" inkscape:version="1.3.2 (091e20e, 2023-11-25, custom)" inkscape:export-filename="Free Aladdin SVG Vector File for Laser Cutting #5.jpg" inkscape:export-xdpi="96" inkscape:export-ydpi="96" xml:space="preserve"><defs id="defs1"><clipPath clipPathUnits="userSpaceOnUse" id="clipPath113"><path id="path114" style="fill:#ff0000;fill-opacity:1;fill-rule:nonzero;stroke:none" d="M 2.9628906,1.5410156 V 1025.541 H 1026.9629 V 1.5410156 Z M 293.67773,139.81641 c 38.78237,0.0372 77.57316,2.74888 116.00196,7.94531 9.31557,1.25967 16.80122,2.42691 23.99219,3.61523 10.27792,-0.3038 20.55529,-0.75321 30.83203,-0.95703 14.58932,-0.28934 29.18196,-0.29322 43.77343,-0.43945 46.53028,0.28606 24.38517,-0.0451 66.44141,0.88867 54.84682,1.2178 55.04979,55.19707 3.00195,56.8457 -6.1839,8.26148 -18.23898,14.62367 -36.47656,15.15625 -21.15117,0.61768 -28.76416,0.63406 -50.75,2.22266 -18.68903,1.35038 -37.33725,3.19301 -55.93555,5.45508 12.00063,0.0193 24.0013,-0.009 36.00196,0.0273 66.76978,0.11898 133.48538,3.0383 200.17968,5.91016 25.42671,1.24765 13.23223,0.57672 36.58789,1.97851 56.22877,3.37485 52.81401,60.18738 -3.41406,56.80078 -22.61685,-1.36219 -10.74494,-0.70775 -35.62109,-1.92968 -65.93564,-2.83932 -131.89204,-5.73727 -197.90235,-5.85742 -52.78622,-0.15844 -105.57291,-0.13205 -158.35937,-0.12305 -9.16266,0.002 -16.80838,-1.52083 -22.99023,-4.04102 -8.74572,3.01656 -17.52277,5.93377 -26.24219,9.02539 5.53615,3.59244 10.90239,7.44144 16.04883,11.5918 4.70998,3.73784 8.83886,8.09962 12.36718,12.95508 1.5436,2.1124 2.55395,4.47557 3.53125,6.8789 9.8338,24.185 -37.52779,-10.81092 -26.60351,7.61524 0.31619,0.4098 0.64839,0.8079 0.93554,1.24023 -0.44213,-0.0304 0.70204,0.75679 0.40235,0.86329 -0.12222,0.0434 -0.14476,-0.21442 -0.2168,-0.32227 -0.43207,-0.64688 -0.79559,-1.23222 -1.12109,-1.78125 -1.833,-2.37563 -4.08458,-4.41876 -6.37696,-6.33594 -7.56519,-6.14589 -15.72844,-11.47202 -24.25195,-16.18945 -0.92586,2.54501 -3.0645,5.18616 -6.93164,7.32617 -5.10312,2.8241 -9.95819,6.06992 -14.86719,9.22461 2.81513,1.78876 5.51751,3.74734 8.23243,5.68555 5.18806,1.80493 8.8968,4.88551 11.03125,8.55273 1.16624,0.97848 2.39771,1.87328 3.53906,2.88281 2.91203,2.57573 5.65216,5.33856 8.47851,8.00782 2.39847,2.43533 4.64548,5.00151 6.92579,7.53906 13.84417,2.09215 20.25502,12.14131 17.54101,21.82812 4.7594,6.45777 9.47691,12.95221 13.9043,19.63672 1.21171,1.92591 2.42306,3.85144 3.63476,5.77735 17.71331,28.15355 -3.1627,47.61417 -22.84961,33.65429 0.88619,4.6804 -0.55351,9.51159 -4.04296,13.56055 1.04239,2.54428 1.29621,5.24906 0.93554,7.92578 7.63483,3.69079 11.56903,9.74792 11.79688,15.88477 24.42995,8.6014 21.521,33.8248 -3.25977,37.26953 0.2392,0.0822 0.48175,0.15577 0.71875,0.24414 1.32204,0.49294 2.59578,1.10967 3.91602,1.60742 6.1205,2.30754 12.5364,3.89615 18.80664,5.73242 32.51961,9.52357 29.18264,38.88509 3.92773,40.54688 0.82772,9.16876 -5.02111,16.75697 -15.05859,17.92969 -2.79812,5.03386 -8.14937,8.15971 -14.7832,8.14257 -2.31699,12.42641 -14.08865,18.12631 -25.67969,11.9336 -0.50271,4.07229 -1.76443,6.60884 -5.95508,2.17578 -1.76603,-1.86821 -2.92221,-4.15953 -4.04297,-6.44336 -0.7455,-1.83568 -1.59262,-3.62014 -2.44336,-5.4082 -0.80964,-1.86166 -1.57258,-3.74442 -2.45312,-5.57422 -1.17165,-2.196 -2.28983,-4.41664 -3.33594,-6.67578 -1.29648,-2.37407 -2.9203,-4.55688 -4.48828,-6.75586 -1.71627,-2.71064 -3.95334,-4.91791 -6.22266,-7.14258 -2.01529,-1.9498 -4.30164,-3.5753 -6.48047,-5.33008 -2.50969,-1.8648 -5.23778,-3.42264 -7.93945,-4.99023 -3.23919,-1.78783 -6.68515,-3.13587 -10.16602,-4.36524 -4.37295,-1.34502 -8.73516,-2.72496 -13.10937,-4.06836 -4.07898,-1.10227 -8.25536,-1.8396 -12.39649,-2.67969 -2.58041,-0.46728 -5.16949,-0.88572 -7.75586,-1.31835 -1.61838,-0.002 -3.23623,-0.0178 -4.85351,-0.10352 -3.38027,-0.33301 -6.77436,-0.45435 -10.15625,-0.75781 -4.12239,-0.43971 -8.26086,-0.69928 -12.38867,-1.07813 -4.70743,-0.59443 -9.41989,-1.13478 -14.15039,-1.5039 -2.79757,-0.17224 -1.40494,-0.12642 -4.18164,-0.13672 -2.6021,-0.01 -4.76625,-0.45672 -6.51172,-1.1875 -2.59351,-0.0656 -5.187311,-0.12423 -7.781252,-0.16407 -15.930306,-0.24479 -15.682228,-16.33708 0.248046,-16.09179 3.438666,0.0529 6.876926,0.11074 10.314456,0.21679 4.4958,0.14043 8.98588,0.43163 13.47851,0.65821 1.67023,-0.61155 3.68966,-0.97551 6.07227,-0.97461 2.01371,4e-4 1.00259,-1e-4 3.0332,0.002 2.75566,0.002 5.51193,0.004 8.26758,0.0156 3.2526,0.0159 6.50591,0.0371 9.75781,0.0976 4.34593,0.0872 8.69306,0.18906 13.0293,0.50782 3.83572,0.35709 7.64372,0.95469 11.48437,1.25976 5.4769,0.54616 10.92231,1.30683 16.35547,2.18555 0.83497,0.10326 1.67412,0.16249 2.50977,0.25781 -2.12686,-2.98708 -3.69443,-5.88367 -4.75586,-8.64062 -5.96772,-0.58002 -11.92558,-1.26752 -17.9043,-1.72266 -12.19449,-0.92834 -20.63657,-5.29731 -25.34765,-10.83594 -3.53228,-1.73785 -6.4234,-3.88586 -8.35743,-6.40625 -6.73739,-1.51815 -11.72082,-4.38427 -14.69335,-8.04883 -24.174686,1.83379 -34.360493,-13.00883 -28.658208,-25.26562 -9.162301,-6.33987 -10.614529,-17.35942 -1.707031,-25.65235 -18.296821,-8.66245 -13.85151,-33.81372 17.023439,-37.46093 4.49601,-0.53114 8.9998,-0.97387 13.50781,-1.36719 0.31236,-0.49952 0.97972,-1.16679 1.2168,-1.63086 -14.38213,-0.4547 -31.815076,1.54227 -20.82813,-9.64844 -14.044045,-0.37014 -27.081172,-0.62921 -12.027341,-12.90039 1.204229,-0.98164 2.358456,-2.02923 3.613281,-2.94531 2.609696,-1.90521 8.5514,-5.46789 10.93359,-6.81445 8.83651,-4.99534 17.97246,-9.33871 27.16602,-13.62305 8.59264,-3.89312 17.41342,-7.13445 26.36914,-9.94922 -3.04312,-1.18826 -6.14843,-2.20566 -9.2207,-3.31641 -8.21482,3.8338 -17.17582,8.03915 -24.52149,12.3125 -1.5827,0.92076 -2.99655,2.10382 -4.48242,3.17383 -0.49372,0.35553 -0.96842,0.73644 -1.45508,1.10157 -0.12085,0.0907 -0.40618,0.41158 -0.36718,0.26562 0.0978,-0.36617 0.37363,-0.66051 0.56054,-0.99023 27.77806,-49.0043 -80.482847,17.29485 -48.792967,-29.27539 1.925291,-2.82935 4.060355,-5.44186 6.347656,-7.89063 C 51.904452,305.04411 55.0364,281.7964 85.691406,281.57422 c 1.164107,-0.008 2.368084,0.0162 3.611328,0.0762 0.882456,0.0426 1.770108,0.0316 2.648438,0.12695 6.03167,0.65431 11.972568,2.08372 17.859378,3.4961 3.67238,0.88112 7.15692,1.79727 10.65625,2.69531 3.4494,-1.60329 6.93634,-3.21716 10.28125,-4.82227 5.72655,-2.55523 11.49019,-5.0201 17.25586,-7.47851 -1.75788,-0.43283 -2.70108,-0.76677 -5.23438,-1.37109 -7.08958,-1.69147 -10.33664,-2.4202 -17.02539,-3.5918 -3.64434,-0.63829 -2.73028,0.36277 -3.5957,-0.62305 -5.48257,-6.24527 -9.52383,-11.10875 -12.53906,-15.29883 -0.88257,0.48339 -1.78586,0.91961 -2.66016,1.42188 -48.843792,28.05947 -83.255917,-3.87432 -40.234376,-40.23633 1.815047,-1.53409 3.490648,-3.24985 5.445312,-4.60156 14.718268,-10.17813 31.245864,-17.12847 47.980464,-23.22071 5.61194,-2.04299 11.24079,-4.06694 16.92774,-5.89062 -7.22218,-10.42809 0.60587,-21.62997 29.37695,-29.67774 2.74971,-0.76911 5.46864,-1.66136 8.25,-2.30664 7.19949,-1.67025 19.79429,-3.63042 26.41407,-4.50195 13.69101,-1.8025 32.81867,-3.71538 46.23046,-4.54492 9.89618,-0.61209 19.81255,-0.84001 29.71875,-1.25977 5.53898,-0.10431 11.07882,-0.15375 16.61914,-0.14843 z m -76.9707,85.11132 c -5.87736,0.7895 -11.76171,1.52658 -17.63086,2.38086 -12.06338,2.18386 -24.26167,3.72032 -36.18945,6.55274 -7.50462,1.78208 -14.70217,4.68382 -21.97266,7.25976 -2.95776,1.04797 -5.89688,2.13437 -8.8125,3.26953 14.70441,2.44376 29.15917,6.50067 43.50196,10.4375 0.69882,0.20616 1.3902,0.43988 2.08789,0.6504 3.06059,-3.61418 6.45403,-6.94965 9.63671,-10.46094 4.61447,-3.78064 8.81905,-8.12341 13.8418,-11.3418 5.18821,-3.32438 10.35082,-6.13497 15.53711,-8.74805 z m -89.25195,172.83204 c -0.51206,0.27231 -1.03183,0.52902 -1.55469,0.77929 1.33071,-0.10201 2.66273,-0.18812 3.99414,-0.28125 0.0409,-0.026 0.1004,-0.0722 0.14063,-0.0976 -0.81603,-0.15973 -1.67597,-0.29375 -2.58008,-0.40039 z m 125.95703,26.5332 c -0.0885,0.12434 -0.24177,0.22466 -0.33399,0.34765 0.2608,0.10969 0.51249,0.22511 0.76563,0.33985 -0.14367,-0.22928 -0.28787,-0.45829 -0.43164,-0.6875 z m 5.25977,94.81445 c -1.80776,0.60721 -3.53797,1.2831 -5.66993,1.60938 1.0131,0.58333 2.02037,1.17446 3.01367,1.75781 2.91402,1.71122 4.84706,2.95067 7.16407,4.4082 -1.70084,-2.77322 -3.33296,-5.45076 -4.50781,-7.77539 z"/></clipPath><clipPath clipPathUnits="userSpaceOnUse" id="clipPath240"><path id="path241" style="fill:#ff0000;fill-opacity:1;fill-rule:nonzero;stroke:none" d="M 0.1171875,-1.3046875 V 485.71875 c 14.5865275,1.82831 30.9645935,12.54534 44.2441405,35.03906 l 1.597656,2.70508 c 0.761593,-13.66571 5.121238,-23.70676 11.205078,-30.04297 -5.538683,-5.82129 -10.364462,-12.22085 -14.833984,-18.89258 -5.027177,-7.64541 -8.925898,-15.92442 -12.210937,-24.4414 -2.771807,-7.4593 -4.20458,-15.2695 -5.857422,-23.01758 -1.840357,-8.20402 -2.646402,-16.57234 -3.228516,-24.94336 -0.889098,-10.32122 -0.307063,-20.63098 1.050781,-30.875 1.199591,-9.04831 2.94626,-17.9899 5.195313,-26.83203 1.533207,-4.56818 2.600652,-9.21725 3.490234,-13.91211 -24.4778425,-1.78376 -33.4870855,-28.21166 -3.302734,-56.63477 0.741825,-0.69855 1.484992,-1.3788 2.228515,-2.0625 -4.186806,-4.38753 -9.465946,-3.12816 -16.824218,9.53907 -0.398348,0.68576 -0.946419,2.80962 -1.195313,2.05664 -0.280452,-0.84853 0.702135,-1.64423 1.060547,-2.46289 1.809962,-4.13431 3.753992,-8.21592 5.648438,-12.3125 3.982988,-9.47215 8.483861,-18.63801 13.777343,-27.44336 1.547079,-2.71592 3.240401,-5.32694 4.994141,-7.89453 0.845969,-5.81943 1.861169,-11.61055 3.248047,-17.34375 4.003643,-13.57035 9.738644,-26.54053 16.078125,-39.16016 5.396233,-11.61072 12.4414,-22.27489 19.769531,-32.72852 11.788871,-16.81682 25.374287,-23.74817 36.728517,-23.61718 8.53966,0.0985 15.69163,4.2899 19.97265,11.1914 4.13771,-3.13583 8.43366,-6.06317 12.7129,-9.00976 6.00688,-4.04951 11.95507,-8.18397 18.10546,-12.01367 6.5407,-4.07792 13.43311,-7.56541 20.29297,-11.070318 8.15411,-4.150252 16.34081,-8.233537 24.63086,-12.105468 7.48589,-3.695848 15.26928,-6.721732 22.89453,-10.103516 8.25919,-3.53341 16.86675,-6.217004 25.52735,-8.572266 6.9094,-1.848249 13.98635,-2.885159 21.09375,-3.572265 1.40343,-0.166641 2.78816,-0.10322 4.18359,-0.1875 7.45172,-5.219752 18.2548,-8.667969 32.49024,-8.667969 h 20.30078 20.33593 c 2.97879,-0.01051 5.9564,-0.0289 8.93164,-0.0039 2.97545,0.02481 5.94954,0.09235 8.92383,0.255859 3.98238,0.418006 7.95809,0.862845 11.95117,1.164063 59.57674,4.493911 54.95138,64.80121 -4.61523,60.17774 -3.89757,-0.30253 -7.7914,-0.65071 -11.66992,-1.14453 -1.03741,-0.39302 -0.16327,-0.0957 -2.76563,-0.0957 h -10.75586 -20.33593 -11.13477 c -3.62391,7.13898 -8.84595,11.72467 -15.93359,17.08594 -4.8782,3.60629 -10.39519,6.08564 -16.01953,8.25781 -20.83438,8.04706 -37.18602,3.91283 -46.44727,-5.06836 -3.84367,1.64396 -7.67107,3.32396 -11.42773,5.16407 -7.64848,3.56772 -15.19131,7.34628 -22.71485,11.16992 -3.10205,1.58234 -6.20257,3.17705 -9.27148,4.82812 -0.82878,0.96764 -1.34904,1.91617 -2.26172,2.88672 -3.91221,4.16031 -7.85602,8.28867 -12.08008,12.13867 -6.38091,5.72094 -12.90692,11.27528 -19.22656,17.06446 -6.69624,5.97511 -13.30278,12.06063 -20.28516,17.70508 -5.51072,4.65448 -11.1334,9.17001 -16.6582,13.80468 -4.97758,7.07396 -9.80644,14.24936 -14.63281,21.42774 -3.99792,6.31058 -7.92305,12.66951 -11.82618,19.03906 -3.61642,6.37744 -6.991049,12.88141 -10.371089,19.38477 -0.18962,0.36836 -0.394364,0.73093 -0.583984,1.09961 -0.06844,5.79473 -0.102656,11.59057 -0.302735,17.38281 -0.40414,11.01017 -0.929573,22.03366 -2.396484,32.96289 -1.317149,8.91222 -2.990915,17.75643 -5.851562,26.32031 -0.09311,0.3636 -0.122174,0.73949 -0.212891,1.10352 7.303875,6.45569 13.234207,17.39621 15.505855,33.18164 0.20458,1.42156 0.4087,2.84211 0.61329,4.26367 1.61505,10.26764 2.97255,20.5756 4.18164,30.89844 0.49281,6.19871 0.96735,12.39878 0.77734,18.62304 -0.10769,3.52784 -0.43008,6.84039 -0.92773,9.95118 4.19073,4.94043 8.38535,9.87687 12.47851,14.90039 7.31062,9.11806 14.09274,18.64138 20.34375,28.51953 3.97636,6.65021 7.73453,13.4344 10.94922,20.46289 0.16467,-0.0105 0.32253,-0.0346 0.48828,-0.043 1.41414,-0.0716 2.71189,-0.0735 3.91406,-0.0137 8.41522,0.41917 12.21235,3.91741 19.45703,8.5039 8.12881,6.98692 13.22898,16.38205 17.44336,26.05469 1.74673,4.64842 3.51703,9.28492 5.25196,13.9375 2.54493,6.63984 3.63034,13.64458 4.30273,20.68359 0.90655,7.85375 0.28355,15.68006 -1.21484,23.41016 -2.11826,9.07544 -6.58418,17.29163 -11.18555,25.30664 -3.85669,6.62835 -7.98933,13.08893 -12.00976,19.61719 -4.04695,6.23794 -7.34385,12.91605 -11.01954,19.37109 -2.12823,4.35919 -4.60415,8.56567 -6.45312,13.05664 -0.40176,0.89723 -0.7854,1.80438 -1.20508,2.69336 -0.12321,0.26098 -0.25538,0.51753 -0.38086,0.77735 0.17281,0.25195 0.34995,0.50042 0.52344,0.75195 8.27394,11.99576 6.92946,17.2344 1.10156,19.21875 24.17524,26.66264 0.221,60.72819 -45.08203,40.46094 -4.3557,-1.94862 -8.65263,-4.02971 -12.86914,-6.26563 -4.891422,-2.85668 -9.606892,-5.98916 -14.357422,-9.07031 -5.00604,-3.58267 -10.449183,-6.5268 -15.746094,-9.64453 -2.009175,-1.22952 -4.205007,-2.87798 -6.316406,-3.98828 -0.734747,-0.38638 -1.612697,-0.52787 -2.255859,-1.05274 -0.517797,-0.42255 1.584591,0.60089 1.935547,0.52149 8.951953,-2.0245 14.123432,-5.1678 16.693359,-8.97852 -9.195464,-10.21228 -16.981714,-21.59756 -25.042969,-32.70117 -0.879425,-1.24042 -1.744962,-2.49037 -2.61914,-3.73438 -0.600298,6.09499 -0.724892,12.23287 -0.515625,18.41797 1.567283,46.32486 -35.351443,56.7047 -52.1894535,31.14453 V 1022.6953 H 1024.1172 V -1.3046875 Z M 640.02734,12.847656 c 9.75791,-0.09727 21.51209,3.18086 34.16797,11.113282 17.90564,11.222715 34.08886,26.16426 49.97657,40.332031 30.94591,28.945537 59.60537,60.228441 86.51367,92.931641 11.92072,15.04072 22.38717,31.11271 32.76757,47.22461 14.5142,22.52748 12.22559,41.44957 2.44336,51.01953 3.26319,5.23395 6.32954,10.58982 9.17969,16.07617 9.57505,18.43194 9.11544,33.63334 3.47461,43.56836 2.64207,2.47951 5.25556,5.31171 7.80469,8.5586 7.58216,9.65759 12.77152,20.74703 17.53906,31.97656 6.42552,16.17158 11.51931,32.82899 16.36328,49.52929 3.25056,11.70939 6.20453,24.07567 4.54492,36.33008 -0.48097,3.55151 -1.5279,7.00216 -2.29101,10.50391 -6.0315,27.67679 -19.69263,11.91238 -32.24805,-5.93164 -0.80397,9.04805 -1.64689,18.09378 -2.48828,27.13672 -1.99352,18.09034 -3.80472,36.20016 -5.9668,54.27148 -0.16789,1.1945 -0.33228,2.38946 -0.5,3.58399 23.79249,2.751 33.58126,32.96055 2.4961,60.3164 -4.3432,3.82215 -8.63676,7.70679 -12.81446,11.70508 -1.47238,8.91209 -3.06024,17.80446 -4.78711,26.67187 -2.16115,9.44704 -2.72559,19.51374 -6.65039,28.5 -1.17416,2.68877 -2.67191,5.22564 -4.00781,7.8379 -9.17994,17.9508 -15.72811,13.86269 -21.1914,2.83398 -1.85997,44.33704 -37.38473,55.05702 -53.02344,25.95508 -1.88935,-0.97457 -3.78853,-1.98581 -5.73438,-3.24024 -5.86665,1.81604 -12.51838,1.14373 -19.03125,-2.06054 -0.50905,0.62932 -1.01931,1.27708 -1.54297,1.8789 -0.29938,0.27002 -0.50077,0.71044 -0.88867,0.82032 -0.086,0.0244 -0.10922,-0.27274 -0.16992,-0.20704 -0.17003,0.18405 -0.0535,0.79973 -0.28125,0.69532 -0.269,-0.12332 -0.10293,-4.07412 -0.17383,0.98632 -0.0157,0.59263 1.44822,10.96363 0.29883,6.32813 -1.99345,-8.03962 -4.129,-12.23637 -6.375,-13.82617 -0.40675,0.66029 -0.84433,1.30725 -1.23437,1.97461 -0.49112,0.84028 -1.40033,3.21077 -1.75196,4.08984 -5.5993,13.99829 -13.35088,23.02484 -21.45508,27.82617 -8.24916,15.4865 -16.84735,25.77083 -25.2207,2.34961 -0.0969,-0.27099 -0.11412,-0.56007 -0.20703,-0.83203 -10.97919,-5.84308 -17.6717,-20.85992 -12.3457,-41.93359 0.28783,-1.57964 0.66076,-3.30428 1.16211,-5.2461 0.62743,-2.4301 1.06359,-4.91864 1.88281,-7.29101 4.36444,-12.63907 13.69946,-24.49495 22.65625,-35.20703 -2.19034,-3.02971 -4.26311,-6.14593 -6.14063,-9.39844 -3.58521,-7.02147 -6.5319,-14.72644 -7.11132,-22.67578 -0.1667,-2.28771 -0.0465,-4.5872 -0.0703,-6.88086 0.59814,-2.97474 1.19686,-5.94909 1.79492,-8.92383 1.94744,-9.68506 4.60752,-13.84153 7.6875,-14.65625 3.6272,-6.18027 8.85637,-10.90432 16.7461,-13.47851 2.14839,-0.70097 4.38005,-0.94489 6.64648,-0.99024 0.32374,-0.006 0.65346,0.0206 0.97852,0.0215 11.74566,-7.50465 25.19978,-11.73664 38.80078,-15.14648 0.88652,-1.8786 1.75624,-3.76452 2.70898,-5.61328 1.0187,-2.16891 2.10533,-4.30415 3.23633,-6.41602 -6.35489,-6.42154 -11.59241,-16.28898 -14.06836,-30.15039 -1.2893,-7.21795 -2.84358,-14.38765 -3.92968,-21.64062 -0.0639,-0.43364 -0.0983,-0.87082 -0.16016,-1.30469 -11.52852,2.27683 -18.64231,-0.86674 -11.87109,-19.06836 2.03158,-5.46136 0.89751,-2.7452 3.41601,-8.14453 0.74921,-1.30722 1.44937,-2.64439 2.24805,-3.92187 0.15515,-0.2482 1.10705,-1.60475 2.0039,-2.86524 -0.26393,-1.85219 -0.44899,-3.71287 -0.70117,-5.56836 -0.54211,-6.51297 -0.93426,-13.03374 -0.45117,-19.5664 0.3613,-7.18295 0.87338,-14.38429 2.36914,-21.43555 2.25122,-9.48138 5.4838,-18.69776 10.72852,-26.98438 0.74279,-1.1931 1.51417,-2.36524 2.28125,-3.54101 -4.7797,-8.78014 -6.57242,-21.27156 -2.40039,-37.33985 1.37894,-5.31145 0.62776,-2.63997 2.25781,-8.01562 2.5679,-7.3784 5.58134,-14.5913 9.09375,-21.57422 2.76669,-6.40625 5.00434,-13.00568 6.9043,-19.7207 1.54199,-7.88166 2.63681,-15.81211 2.57421,-23.86719 v -3.24219 c -3.66727,-4.35425 -7.30233,-8.73667 -11.23632,-12.86914 -6.40044,-6.70286 -13.26671,-12.93324 -20.93946,-18.16797 -8.61743,-6.36644 -17.5448,-12.28155 -26.46875,-18.20703 -10.91603,-7.24234 -21.7991,-14.5821 -31.79101,-23.08594 -11.15151,-9.65469 -21.67044,-19.98601 -31.62305,-30.87695 -9.0455,-9.86815 -17.74075,-20.06511 -26.98633,-29.74414 C 589.97841,88.182921 599.5674,59.862406 621.30666,56.740254 603.86554,34.34277 615.68545,13.090322 640.02736,12.847676 Z m 93.94922,429.021484 c -7.86059,13.67908 -5.3417,16.61609 1.91016,15.2832 -0.14312,-1.26113 -0.31653,-2.51824 -0.46289,-3.77929 -0.30056,-3.85893 -0.90691,-7.67726 -1.44727,-11.50391 z M 174.22461,566.42383 c 0.003,-0.14539 -0.16681,0.24801 -0.19531,0.39062 -0.094,0.47082 -0.14707,0.94774 -0.21094,1.42383 0.15592,-0.33551 0.31873,-0.66748 0.45508,-1.01562 -0.56112,1.05614 -0.0697,0.2552 -0.0488,-0.79883 z M 0.1171875,602.51562 v 16.16602 c 1.9607299,-1.98418 4.4056185,-3.67385 7.3300781,-4.98047 -2.4453705,-3.7269 -4.9157469,-7.43814 -7.3300781,-11.18555 z M 838.76562,753.38867 c 10.70897,-0.34698 23.73876,5.10089 36.3711,18.84961 7.673,8.35109 15.3778,16.68843 23.88086,24.21875 8.53113,7.57711 17.26456,14.79259 26.21484,21.86914 1.53361,1.21255 4.58051,1.64908 4.62891,3.60352 0.0382,1.54349 -5.02041,-2.48302 -4.54688,-0.88477 16.97279,57.28542 48.67448,71.20211 -9.92187,59.5332 -13.9195,-2.77193 -24.92942,-12.71959 -35.63477,-21.32421 -11.95748,-9.61105 -8.61764,-6.92108 -20.72265,-17.58789 -10.05494,-8.8805 -19.19191,-18.6911 -28.28125,-28.53125 -27.87121,-30.17343 -15.548,-58.98274 8.01171,-59.7461 z"/></clipPath></defs><sodipodi:namedview id="namedview1" pagecolor="#ffffff" bordercolor="#000000" borderopacity="0.25" inkscape:showpageshadow="2" inkscape:pageopacity="0.0" inkscape:pagecheckerboard="0" inkscape:deskcolor="#d1d1d1" inkscape:zoom="0.35148179" inkscape:cx="611.69599" inkscape:cy="650.10481" inkscape:window-width="1366" inkscape:window-height="705" inkscape:window-x="-8" inkscape:window-y="-8" inkscape:window-maximized="1" inkscape:current-layer="g1"/><g inkscape:groupmode="layer" inkscape:label="Image" id="g1"><path style="fill:#000000" d="m 548.57251,910.43151 c -1.05448,-4.20137 -10.19962,-16.87197 -17.2755,-23.93523 -7.49702,-7.48364 -20.78549,-16.83647 -31.77347,-22.36313 -3.88348,-1.95329 -9.53587,-5.14341 -12.56087,-7.08915 -3.025,-1.94574 -9.06952,-5.02979 -13.43227,-6.85343 -4.36275,-1.82364 -9.15842,-4.49045 -10.65706,-5.92623 -2.05926,-1.97289 -4.23057,-2.78806 -8.8897,-3.33742 -5.54268,-0.65353 -6.53613,-1.13893 -9.84294,-4.80921 -4.04951,-4.49462 -11.74742,-8.87137 -17.17803,-9.7668 -1.925,-0.3174 -8,-2.92247 -13.5,-5.78904 l -10,-5.21195 0.13759,-5.25 0.13759,-5.25 h -3.25928 c -2.20929,0 -5.63625,-1.55443 -10.63759,-4.82509 -15.14806,-9.90616 -27.35786,-21.47276 -54.54848,-51.67491 -29.40827,-32.66541 -48.38955,-48.34925 -85.32983,-70.50625 -14.25198,-8.54843 -45.85098,-24.75763 -60.5,-31.03442 -6.6,-2.82795 -12.5625,-5.6058 -13.25,-6.17298 -0.6875,-0.56718 -1.25,-2.55752 -1.25,-4.42298 l 0,-3.39174 -4.03129,2.66778 -4.03128,2.66778 -11.21872,-3.15986 c -6.17029,-1.73792 -16.16871,-4.1453 -22.21871,-5.34974 -6.05,-1.20444 -11.33061,-2.66413 -11.73468,-3.24374 -0.40408,-0.57962 -0.74158,-2.74135 -0.75,-4.80385 -0.008,-2.0625 -0.43025,-3.75 -0.93739,-3.75 -0.50715,0 -2.41965,1.73312 -4.25,3.85139 l -3.32793,3.85138 -17.499998,0.62264 c -21.744187,0.77365 -28.502041,1.84118 -31.919324,5.04226 -1.419372,1.32957 -5.015644,3.63507 -7.991717,5.12332 -5.537841,2.76933 -23.698321,7.86847 -25.049424,7.03345 -0.412737,-0.25509 -0.384381,-2.77942 0.06301,-5.60962 2.410066,-15.24598 9.853398,-26.56329 19.736467,-30.00854 1.738541,-0.60606 3.161339,-1.62041 3.161773,-2.2541 0.003,-4.44202 11.171426,-22.66228 17.869268,-29.15218 3.234547,-3.13412 4.12836,-4.73209 4.129056,-7.38196 0.0013,-4.84876 3.327637,-9.6315 7.998441,-11.50038 3.637844,-1.45558 3.910739,-1.8262 3.362622,-4.56678 -0.486899,-2.43449 0.324824,-4.41895 4.416842,-10.79804 2.757354,-4.29847 5.712571,-9.48883 6.56715,-11.53412 0.854578,-2.04529 1.914241,-3.72132 2.354806,-3.72451 0.440564,-0.003 3.501024,-0.45189 6.801024,-0.99713 8.73662,-1.44348 31.20932,-3.04585 33.01255,-2.35389 2.73568,1.04978 -4.23719,12.0713 -28.37907,44.85681 -6.88495,9.35 -14.683229,20.375 -17.329505,24.5 l -4.811411,7.5 12.253716,0.65389 c 42.33944,2.25933 91.47465,19.0917 155.97433,53.43253 55.11025,29.34172 88.90067,52.49423 129.75368,88.90459 54.38754,48.47304 71.14053,59.94018 128.00793,87.61929 14.56522,7.08934 27.51523,12.8897 28.7778,12.8897 4.9561,0 38.63629,-17.09763 54.68634,-27.76133 22.64061,-15.04248 39.09404,-30.03126 70.53379,-64.25496 48.67066,-52.98041 71.25379,-68.94508 161.51985,-114.1831 27.5,-13.78198 55.4,-28.31841 62,-32.30318 12.65657,-7.64142 33.35332,-21.60434 33.44556,-22.5638 0.0299,-0.31151 -6.79547,-5.03651 -15.16759,-10.5 -15.46749,-10.09381 -29.06152,-22.13365 -33.16179,-29.37043 l -1.88381,-3.32485 6.88381,0.66913 c 21.26817,2.06732 32.80381,5.11377 46.38382,12.24951 9.50765,4.99588 20.26938,12.36083 17.98705,12.3097 -0.81788,-0.0183 -6.66205,-2.20333 -12.98705,-4.85557 -6.325,-2.65225 -13.3,-5.5753 -15.5,-6.49568 l -4,-1.67342 3,2.54013 c 5.1069,4.32407 20.42083,11.26571 33.40789,15.14342 11.32503,3.38147 12.78807,3.6031 16.76435,2.53961 6.65215,-1.77918 12.39819,-1.42023 17.36587,1.08482 4.97695,2.50973 5.3551,3.64351 1.84969,5.54581 -1.72686,0.93713 -4.86013,1.12001 -11.31971,0.66069 l -8.93191,-0.6351 -7.06809,7.83402 c -12.08424,13.39376 -18.3961,19.14162 -27.88298,25.39151 -5.03901,3.31965 -28.06707,15.4287 -51.17347,26.90898 -42.58517,21.15819 -59.25058,30.35065 -82.57125,45.5454 -9.88793,6.44255 -13.69466,9.54993 -16.18464,13.2113 -5.29068,7.77964 -12.12695,14.28739 -15.00864,14.28739 -1.94508,0 -3.27401,1.14602 -5.68397,4.90161 -3.51126,5.47183 -10.55542,12.41049 -16.7832,16.53184 -4.31712,2.85693 -6.29003,2.66917 -9.23463,-0.87885 -2.32245,-2.79839 -2.87465,-1.63793 -1.45896,3.06605 1.36412,4.53264 1.33526,4.68977 -1.51559,8.25 -1.59841,1.99614 -5.01598,5.65435 -7.59461,8.12935 -2.57863,2.475 -8.41732,8.775 -12.97486,14 -17.33855,19.8778 -46.53983,47.39268 -68.66065,64.69545 -15.52339,12.14229 -20.54841,15.30455 -24.31981,15.30455 -2.70372,0 -3.49718,0.5287 -4.52785,3.01696 -1.99018,4.8047 -11.08021,12.31206 -21.17357,17.48701 -5.12567,2.62797 -11.34991,6.24944 -13.83164,8.04772 -2.48173,1.79827 -5.82701,3.4223 -7.43394,3.60895 -2.19789,0.25529 -3.09987,1.01102 -3.64089,3.05051 -0.39556,1.49113 -2.75363,5.31613 -5.24017,8.5 -4.45479,5.7041 -11.65836,18.65673 -11.66789,20.97984 -0.01,2.33483 -1.80213,2.25296 -2.39504,-0.1094 z M 48.893217,626.38584 c 3.327488,-1.72071 8.069455,-7.0757 8.069455,-9.11264 0,-1.78009 -0.417703,-1.77575 -3.930544,0.0408 -3.327488,1.72071 -8.069456,7.0757 -8.069456,9.11264 0,1.78009 0.417704,1.77575 3.930545,-0.0408 z M 512.91696,820.33734 C 472.0518,799.92181 458.4445,791.547 432.56174,770.88149 421.48318,762.03606 415.69286,757.05857 385.54008,730.46057 354.80691,703.3506 322.71739,681.08948 280.46267,657.56636 c -18.07508,-10.06236 -46.732,-24.54892 -62.62603,-31.65852 -9.41401,-4.21101 -9.58471,-4.34717 -7.75,-6.18188 1.03182,-1.03182 1.87603,-3.22604 1.87603,-4.87604 0,-1.65 0.3375,-2.99205 0.75,-2.98233 1.43721,0.0339 19.0154,5.78641 21.1146,6.90987 1.16308,0.62246 2.83416,2.58091 3.71349,4.35211 0.87934,1.77119 3.92149,5.50218 6.76035,8.29107 2.83886,2.7889 5.88856,6.16834 6.77711,7.50987 1.0847,1.63766 3.90048,3.17505 8.5693,4.67875 3.8654,1.24493 8.44637,3.57221 10.31456,5.24013 3.96422,3.53926 6.49711,3.80981 8.07447,0.86249 1.08516,-2.02764 1.66793,-2.10998 11.28519,-1.5944 5.57751,0.29901 10.94745,0.86657 11.9332,1.26125 2.36363,0.94638 1.66852,2.75536 -1.36641,3.55596 -2.99552,0.79021 -2.06928,1.13073 8.57414,3.15212 10.80041,2.05121 15.5,4.09583 15.5,6.74347 0,3.19496 -2.62751,3.51992 -9.35579,1.1571 -3.37931,-1.18673 -7.60671,-2.15315 -9.39421,-2.14758 -2.7713,0.009 -3.25,0.36766 -3.25,2.43754 0,1.45526 1.09805,3.29115 2.74175,4.58408 2.4824,1.95266 3.7204,2.12505 13.08841,1.82258 9.98696,-0.32246 10.43305,-0.43458 12.83134,-3.22481 3.26772,-3.80174 2.52245,-6.98185 -2.7699,-11.81938 -2.38429,-2.1794 -3.76435,-4.18675 -3.34495,-4.86537 1.21393,-1.96417 9.26854,-0.36893 16.24415,3.21721 8.02282,4.1245 12.25388,9.07506 12.93717,15.13715 0.84697,7.51427 -1.02923,9.13486 -12.92161,11.16123 -6.75206,1.1505 -5.66002,7.58358 1.54733,9.11511 1.73047,0.36772 5.76352,1.56351 8.96233,2.65733 6.74481,2.30635 8.23793,1.93925 3.18357,-0.7827 -1.9318,-1.04034 -3.35955,-2.34997 -3.17278,-2.91027 0.18677,-0.56031 2.55214,-1.82042 5.25639,-2.80024 5.06372,-1.83472 9.4168,-5.68731 9.4168,-8.33412 0,-0.82679 0.45,-1.22514 1,-0.88522 1.30031,0.80364 1.24528,12.72289 -0.0854,18.5 -0.57009,2.475 -1.97459,5.49873 -3.12112,6.71941 l -2.0846,2.2194 2.39557,0.91175 c 1.31757,0.50146 4.15217,1.64613 6.29911,2.54372 4.46464,1.86656 5.5784,1.4077 3.73762,-1.53985 -0.8257,-1.32215 -1.04824,-3.44494 -0.62425,-5.95453 0.72178,-4.27217 1.52536,-4.7681 3.61065,-2.22834 1.84828,2.25111 12.9202,9.34277 20.66822,13.23817 3.46268,1.7409 6.56162,3.85806 6.88654,4.7048 0.37925,0.9883 -1.0798,3.23559 -4.07504,6.27656 -5.57401,5.6591 -7.52573,11.05823 -5.25191,14.52853 1.52893,2.33343 3.89253,3.47158 11.51224,5.54351 2.40218,0.65319 5.37878,2.27871 6.61467,3.61225 1.74436,1.8822 3.26576,2.42462 6.80061,2.42462 6.08153,0 7.71711,-0.75783 7.71711,-3.57568 0,-2.33168 0.0991,-2.35407 7.79379,-1.7607 11.6972,0.90202 16.59213,-2.33698 13.17657,-8.71901 -1.29069,-2.41168 -6.08409,-4.94461 -9.35734,-4.94461 -2.07411,0 -2.53825,0.5388 -2.79966,3.25 -0.24439,2.53467 -0.82949,3.32308 -2.6583,3.582 -5.59081,0.79153 -11.92609,-4.49982 -16.72415,-13.96835 -1.41096,-2.78438 -2.41677,-5.21111 -2.23515,-5.39274 0.34379,-0.34379 15.35294,1.64911 27.0856,3.59641 7.70361,1.27859 9.0811,0.69904 11.37355,-4.7852 2.05008,-4.90442 1.63674,-7.62852 -1.63278,-10.76092 -3.66252,-3.50891 -12.69484,-4.8254 -14.8975,-2.17136 -1.6905,2.03693 -0.85242,3.23822 3.97854,5.7028 2.18211,1.11322 3.70002,2.45679 3.37314,2.98571 -0.90567,1.46539 -6.86101,1.16452 -21.56819,-1.08963 -14.16053,-2.17037 -23.71505,-5.63189 -34.54782,-12.51636 -5.45793,-3.46865 -8.22468,-6.37702 -4.77434,-5.01874 1.05272,0.41442 6.05905,1.24609 11.12516,1.84817 9.18269,1.0913 14.28888,0.31623 14.28888,-2.16892 0,-2.8923 -3.32899,-4.09287 -11.34892,-4.09287 -5.62986,0 -8.87002,-0.46505 -10.32097,-1.48133 -1.16319,-0.81474 -5.29471,-5.93511 -9.18114,-11.37861 -11.19416,-15.67899 -19.43063,-21.64162 -38.14897,-27.61714 -8.81454,-2.81389 -21.1917,-3.85763 -25.83485,-2.1786 -2.29664,0.8305 -2.30775,0.80296 -0.67893,-1.68294 1.82537,-2.78586 1.2411,-4.7882 -2.34384,-8.03252 -2.02881,-1.83605 -2.04148,-1.81919 -1.84262,2.45017 0.19611,4.21023 0.12089,4.31819 -3.64574,5.23199 -5.69213,1.38095 -42.92623,-2.70763 -47.65402,-5.23276 -3.91422,-2.09059 -6,-4.23223 -6,-6.16066 0,-2.42622 4.22431,-5.54949 8.62155,-6.37442 5.01659,-0.94112 3.16883,-2.32621 -4.50289,-3.37538 -3.47183,-0.4748 -6.65299,-1.41434 -7.06925,-2.08786 -0.41626,-0.67351 -2.28516,-1.59001 -4.15312,-2.03665 -12.5038,-2.98974 -21.62711,-6.35637 -24.38729,-8.99927 -3.6872,-3.53052 -11.5719,-7.77759 -15.97137,-8.60294 -1.796,-0.33693 -5.22325,-0.22543 -7.61612,0.24778 l -4.35066,0.86039 3.71458,2.19165 c 6.46434,3.81405 5.03472,5.01676 -6.53543,5.49815 -9.835,0.40919 -10.81683,0.25183 -24.25,-3.8865 -7.7,-2.37213 -17.375,-5.01703 -21.5,-5.87756 -9.3393,-1.9483 -32.57795,-5.45965 -36.19098,-5.46844 -1.48004,-0.004 -2.91644,-0.37134 -3.192,-0.81721 -0.27556,-0.44586 5.12181,-8.43336 11.99415,-17.75 6.87235,-9.31663 13.98326,-18.96434 15.80203,-21.43934 4.83318,-6.57702 10.12325,-15.13874 13.55802,-21.94297 l 3.01477,-5.97224 9.0479,0.20761 c 6.53717,0.14999 8.58966,0.4851 7.39655,1.2076 -10.09081,6.11065 -13.35884,9.45539 -7.93044,8.11658 1.375,-0.33912 3.5125,-0.86709 4.75,-1.17328 1.58472,-0.39209 2.61792,0.0447 3.49429,1.47728 1.11423,1.8214 0.9052,2.20546 -2,3.67475 -1.78436,0.90243 -4.76411,2.77928 -6.62168,4.17078 -3.02628,2.26699 -3.47327,2.35867 -4.29969,0.88195 -2.00885,-3.58962 -10.82292,-0.52847 -10.82292,3.75882 0,0.77379 -2.3152,3.34528 -5.14489,5.71444 -2.8297,2.36915 -5.96981,6.12355 -6.97804,8.34311 -3.33405,7.33973 -1.62447,22.53557 2.53532,22.53557 0.83294,0 4.3434,2.6056 7.80103,5.79023 5.62609,5.18188 10.94222,9.20977 12.15533,9.20977 0.24151,0 -0.43693,-2.30554 -1.50764,-5.12342 -1.60879,-4.23398 -1.68624,-5.02345 -0.44615,-4.54758 0.82533,0.31671 6.8071,2.21904 13.29282,4.22741 6.48572,2.00836 12.23305,4.0681 12.77183,4.57719 0.53879,0.50909 1.75114,2.8248 2.69413,5.14601 1.69106,4.16266 1.71528,4.17797 1.77039,1.11962 0.0307,-1.70543 -0.43824,-4.51818 -1.04215,-6.25056 -1.14942,-3.29725 -2.65176,-3.96332 -16.40198,-7.27199 -7.43814,-1.78981 -13.5,-4.61169 -13.5,-6.28444 0,-1.95449 3.86135,-4.59224 6.72251,-4.59224 3.01033,0 2.92418,-1.79958 -0.12276,-2.56432 -2.15206,-0.54013 -10.98729,1.20291 -16.01379,3.15925 -4.25757,1.65706 -0.37591,-1.34872 5.34202,-4.13662 5.57994,-2.72062 7.55683,-4.45831 5.07202,-4.45831 -2.27433,0 -0.77724,-2.882 2,-3.85015 3.59401,-1.25288 3.93699,-3.87657 0.61573,-4.71016 -3.08746,-0.7749 -9.55026,2.50536 -12.98994,6.59319 l -2.62579,3.12057 0,-3.38094 c 0,-8.19011 12.71451,-20.17694 25.64463,-24.17694 2.88042,-0.89108 5.94507,1.98896 4.26745,4.01038 -0.63633,0.76673 -1.77687,1.39405 -2.53452,1.39405 -1.58671,0 -1.8436,1.59394 -0.40063,2.48574 1.44992,0.8961 8.82208,-1.32572 10.2685,-3.09473 1.60538,-1.9634 4.1815,-4.53878 6.1727,-6.17091 2.56354,-2.10126 0.0137,-4.64864 -6.62612,-6.61973 -3.27648,-0.97266 -5.77776,-1.94795 -5.55839,-2.16732 0.21936,-0.21936 1.94107,0.0435 3.82601,0.58405 5.60903,1.60865 6.05931,1.24699 3.37405,-2.70996 -2.97804,-4.3884 -2.81751,-6.4706 0.57157,-7.41361 3.77031,-1.04909 11.79924,-1.01889 12.45791,0.0469 0.79563,1.28735 -3.41809,5.05961 -5.65172,5.05961 -0.99629,0 -1.81144,0.42659 -1.81144,0.94798 0,1.86786 5.99962,-1.15993 8.50577,-4.29256 1.38841,-1.73548 2.93285,-3.66173 3.43209,-4.28055 0.86019,-1.06624 11.81653,-2.95381 12.59966,-2.17068 0.20302,0.20302 -4.59101,5.75263 -10.6534,12.33247 -14.50225,15.74006 -29.88412,34.77027 -29.88412,36.97217 0,3.27274 4.27402,8.6913 9.48458,12.02446 6.21962,3.97864 23.70736,11.58097 35.66344,15.50373 9.28547,3.04654 33.7501,10.03681 69.85198,19.95878 90.53845,24.8829 153.7057,53.94395 239.5,110.1856 19.06384,12.49712 19.63982,12.8186 22.96638,12.8186 5.18843,0 10.06898,-3.24296 21.46783,-14.26465 54.96562,-53.14697 105.92421,-81.16074 189.56579,-104.21112 31.24687,-8.61118 47.26909,-14.39098 68,-24.53012 12.97022,-6.34351 21.0578,-11.94741 23.47431,-16.2654 1.44825,-2.58783 1.34803,-3.06058 -1.97431,-9.31313 -1.925,-3.6228 -4.7375,-7.64431 -6.25,-8.93669 -1.5125,-1.29237 -2.75,-2.54374 -2.75,-2.78081 0,-0.23707 3.15,-0.20566 7,0.0698 7.11465,0.50905 8.55008,-0.23655 5.43407,-2.82261 -1.69185,-1.40411 -4.43407,-6.23914 -4.43407,-7.81807 0,-0.53465 1.59413,-1.49821 3.5425,-2.14123 2.90015,-0.95714 4.26375,-0.88054 7.52023,0.42245 8.07625,3.23147 10.31682,0.94451 3.14684,-3.21201 -2.04026,-1.18276 -3.03457,-2.18764 -2.20957,-2.23306 0.825,-0.0454 3.64639,-0.43576 6.26975,-0.86743 l 4.76974,-0.78485 6.52397,8.23251 c 8.58426,10.83238 20.08645,20.79905 32.18654,27.88971 3.4375,2.01438 6.25,4.04178 6.25,4.50532 0,1.49 -17.03817,12.47385 -33.42711,21.54916 -8.75992,4.85077 -32.60992,17.0087 -53,27.01761 -20.39009,10.00892 -44.49789,22.35258 -53.57289,27.43036 -40.16558,22.47405 -72.60334,48.13124 -101.22329,80.06425 -44.81814,50.00633 -69.02889,69.43144 -112.02126,89.87851 l -14.34687,6.82334 z m 45.04571,6.50185 c 12.93581,-5.79085 20,-10.08806 20,-12.16619 0,-1.99253 -3.65118,-4.82308 -6.22137,-4.82308 -0.977,0 -4.81437,2.45913 -8.52749,5.46474 -6.35005,5.14007 -11.55864,7.5611 -13.05267,6.06706 -0.36219,-0.36218 0.34322,-3.40903 1.56757,-6.77076 2.05804,-5.65079 2.10391,-6.24727 0.60757,-7.9007 -0.8902,-0.98365 -3.59973,-2.54509 -6.0212,-3.46985 -4.38703,-1.67543 -4.42296,-1.67101 -10.11926,1.24218 -3.14412,1.60796 -5.85309,3.63236 -6.01992,4.49866 -0.16684,0.86629 1.51694,3.8779 3.74172,6.69246 2.22478,2.81456 4.04505,5.35561 4.04505,5.64679 0,0.89099 -4.87132,0.59062 -9.55718,-0.58929 -4.88052,-1.22893 -5.05493,-1.48791 -2.91101,-4.32242 2.14807,-2.84001 1.81396,-3.57802 -1.33475,-2.94828 -2.20673,0.44135 -3.68335,-0.17497 -6.94192,-2.89743 -3.01872,-2.52206 -4.81516,-3.32876 -6.63722,-2.98045 -3.14744,0.60167 -6.0416,3.72082 -5.28408,5.69487 0.62061,1.61729 8.95581,6.07363 25.66616,13.72218 12.56296,5.75023 13.813,5.7428 27,-0.16049 z m 14.30044,-28.00034 c 4.98137,-1.53859 7.13589,-1.77353 9.17043,-1 4.71319,1.79195 7.55916,1.18105 11.12913,-2.38893 5.4875,-5.4875 3.54523,-10.20568 -2.61702,-6.35729 -3.33469,2.08255 -5.40636,-0.11795 -5.98298,-6.35504 -0.45331,-4.90334 -0.94203,-5.81474 -5.23384,-9.76047 -4.00112,-3.67849 -5.16199,-4.24684 -7.5,-3.67194 -7.4016,1.82002 -8.49318,4.5161 -5.70779,14.09752 2.24284,7.71511 -0.56872,11.66538 -7.13054,10.01846 -1.97,-0.49443 -2.42783,-0.2286 -2.42783,1.40971 0,2.92596 3.54306,6.01905 6.89467,6.01905 1.59206,0 5.82466,-0.90498 9.40577,-2.01107 z m -51.34031,-2.44089 c 2.27165,-2.73717 0.84277,-4.95512 -3.28461,-5.09845 -2.66887,-0.0927 -4.6038,-0.92332 -6.44893,-2.76845 -2.57689,-2.57689 -2.60901,-2.76697 -1.43132,-8.46879 2.11699,-10.24945 1.40215,-11.82013 -6.67685,-14.67057 l -4.28229,-1.51088 -5.86018,6.15845 c -4.70209,4.94141 -5.674,6.50633 -4.91806,7.91881 0.51816,0.9682 0.94211,3.2029 0.94211,4.966 v 3.20565 l -5.5,-0.56765 c -3.025,-0.31221 -5.5,-0.17183 -5.5,0.31196 0,0.48378 1.63454,2.46705 3.6323,4.40725 3.94768,3.83394 8.3172,5.14079 14.16523,4.23659 2.39761,-0.37071 5.64084,0.10406 9.20247,1.34714 6.65193,2.32166 14.26466,2.57586 15.96013,0.53294 z m 13.82667,-15.02301 4.2868,-2.45087 3.18063,1.93425 c 4.10585,2.49692 10.89202,3.51887 13.6314,2.0528 3.30617,-1.76941 2.55862,-2.96694 -3.63563,-5.82407 -5.70338,-2.63072 -5.7277,-2.66021 -3,-3.63772 1.5125,-0.54203 2.75,-1.5014 2.75,-2.13194 0,-1.3607 -4.28167,-3.46748 -7.04705,-3.46748 -1.07412,0 -1.95295,-0.675 -1.95295,-1.5 0,-0.88533 0.91468,-1.5 2.23214,-1.5 1.88646,0 1.62439,-0.41297 -1.69222,-2.66666 -5.12216,-3.4806 -11.65597,-3.67528 -14.84547,-0.44233 -2.15321,2.18253 -2.15823,2.25125 -0.26745,3.65633 2.26582,1.68378 2.2017,1.77472 -2.677,3.79654 -4.52479,1.87516 -4.80687,3.49475 -0.75,4.30612 1.65,0.33 3,0.93376 3,1.34168 0,0.40792 -2.25,1.67673 -5,2.81958 -5.29967,2.20245 -6.09452,3.45186 -3.25,5.10864 3.22983,1.88121 10.48361,1.20832 15.0368,-1.39487 z m 72.93657,-2.13346 c 2.91039,-2.21457 3.83624,-2.38993 9.5353,-1.80605 5.87062,0.60147 6.5367,0.45755 9.52663,-2.05831 3.87959,-3.26446 4.09099,-5.90693 0.65279,-8.15973 -3.66019,-2.39825 -9.82432,-2.18959 -18.2795,0.61878 -6.28269,2.08678 -7.46257,2.22755 -8.18153,0.97609 -0.46207,-0.80429 -1.51232,-2.36235 -2.33389,-3.46235 -1.46591,-1.96272 -1.51272,-1.95033 -2.51118,0.66443 -2.0243,5.30127 -7.29757,4.35753 -12.90801,-2.31009 -2.63274,-3.12884 -6.22398,-3.83415 -6.22398,-1.22237 0,4.3296 7.65687,12.30665 13.90254,14.4839 1.59341,0.55547 3.11508,1.8435 3.38151,2.86231 0.96626,3.69502 8.22901,3.37801 13.43932,-0.58661 z m -130.06977,-3.17494 c 0.2565,-0.98085 2.66749,-2.79315 5.35776,-4.02733 2.69026,-1.23419 5.85892,-3.60274 7.04145,-5.26346 4.10022,-5.75822 3.42439,-16.00483 -1.15141,-17.45713 -2.71684,-0.86229 -3.7361,0.11618 -4.49631,4.31637 -0.87743,4.84782 -2.92523,8.81681 -4.94989,9.59374 -3.64996,1.40062 -7.13124,0.56876 -9.9552,-2.37882 -1.5808,-1.65 -3.18374,-3 -3.56209,-3 -0.37835,0 -0.95791,1.35 -1.28791,3 -0.73828,3.69141 -1.93022,3.76595 -13.77357,0.86142 l -8.72016,-2.13859 -3.82813,1.98061 c -5.1617,2.67058 -5.35669,5.1863 -0.71768,9.2594 3.53345,3.10241 3.97807,3.2253 9.3002,2.5704 9.35611,-1.15128 11.35919,-0.94787 17.58934,1.78621 7.17076,3.14687 12.47076,3.50837 13.1536,0.89718 z m 93.62657,-12.63965 c 0.78266,-0.78266 1.68133,-3.59516 1.99705,-6.25 0.31572,-2.65484 1.47662,-6.92973 2.57978,-9.49977 l 2.00573,-4.67278 4.72757,1.42278 c 4.55515,1.3709 15.4097,1.99239 15.4097,0.8823 0,-0.29727 -0.89385,-1.75977 -1.98635,-3.25 -1.09249,-1.49023 -2.26882,-4.14741 -2.61406,-5.90484 -0.55857,-2.84332 -0.25712,-3.42596 2.73635,-5.28881 1.85023,-1.15141 4.60156,-2.35726 6.11406,-2.67967 1.5125,-0.3224 2.75,-0.6679 2.75,-0.76778 0,-0.0999 -1.96682,-2.29362 -4.37071,-4.875 -2.47073,-2.65315 -5.26477,-4.69341 -6.42742,-4.69341 -2.34215,0 -6.20187,4.38488 -6.20187,7.04572 0,0.9768 -6.075,7.93947 -13.5,15.4726 -13.98751,14.1912 -14.96294,15.8338 -12.35029,20.79742 0.63233,1.20135 1.64483,2.51487 2.25,2.91895 1.80409,1.20462 5.35783,0.86492 6.88046,-0.65771 z m -61.6349,-8.09494 c 1.15359,-3.00622 -2.25747,-8.1481 -11.61838,-17.51369 -9.0468,-9.05131 -19.18151,-15.96835 -23.39654,-15.96835 -0.87434,0 -2.46275,-1.71132 -3.52981,-3.80294 -2.19798,-4.30839 -6.2811,-6.72343 -8.90769,-5.26862 -0.93106,0.51571 -2.59285,2.32039 -3.69285,4.01042 -1.1,1.69003 -2.7875,3.32548 -3.75,3.63435 -2.94957,0.94651 -1.9572,2.13804 2.35498,2.82759 5.08727,0.81349 9.45245,3.00349 10.27877,5.15686 0.67839,1.76786 -2.45759,9.75191 -4.27043,10.87231 -2.24306,1.38629 -1.0176,2.56941 2.63668,2.54559 5.56036,-0.0362 12.40033,-1.79244 15.3737,-3.94726 2.62269,-1.90068 2.62463,-1.90039 5.10278,0.78515 1.36349,1.4776 3.96158,4.93655 5.77352,7.68655 5.81481,8.82518 7.84349,10.5 12.71848,10.5 2.96195,0 4.52964,-0.48301 4.92679,-1.51796 z m 135.12581,-2.11783 c 1.82082,-0.48786 2.03922,-0.88786 1.10161,-2.01761 -1.8162,-2.18839 1.77746,-4.27735 7.42277,-4.31479 3.73184,-0.0247 5.33986,-0.57621 7.25,-2.48635 1.35,-1.35 2.45454,-3.12156 2.45454,-3.93679 0,-0.81524 -2.05378,-4.48211 -4.56397,-8.14861 -5.26836,-7.69524 -6.71627,-11.00172 -5.91844,-13.51547 0.31268,-0.98518 3.81164,-3.81603 7.77547,-6.29077 3.96382,-2.47474 8.52863,-5.88424 10.14403,-7.57667 1.6154,-1.69243 3.25404,-3.07715 3.64142,-3.07715 0.38738,0 1.42071,1.7904 2.29628,3.97866 1.18816,2.96952 1.33779,4.64712 0.58993,6.61414 -0.77166,2.02962 -0.71036,2.51953 0.26664,2.13107 0.69775,-0.27743 3.14928,-1.26491 5.44784,-2.19439 l 4.17919,-1.68998 -2.42919,-4.56869 c -2.09868,-3.94707 -2.4292,-5.90901 -2.4292,-14.41975 0,-5.41808 0.36538,-9.85106 0.81194,-9.85106 0.44657,0 1.81371,1.35496 3.03808,3.01101 1.22438,1.65606 4.009,4.19086 6.18806,5.63289 2.17906,1.44203 3.96192,3.00925 3.96192,3.48272 0,0.47346 -1.80069,2.16525 -4.00153,3.75953 -5.74551,4.16203 -2.59864,4.86024 5.83364,1.29433 3.66734,-1.55088 8.01789,-3.24672 9.66789,-3.76853 2.24965,-0.71146 3.08061,-1.64711 3.32226,-3.74082 0.45205,-3.91663 -1.16798,-5.3935 -7.31648,-6.66993 -9.58457,-1.98975 -13.41148,-8.72267 -10.01413,-17.61849 2.15315,-5.63796 7.44105,-9.66382 16.27856,-12.39345 7.72696,-2.38662 10.56568,-2.49439 12.24985,-0.46509 1.49417,1.80037 1.61781,1.65623 -3.73662,4.35618 -2.31911,1.1694 -4.68161,2.99513 -5.25,4.05718 -3.13373,5.85542 1.34448,12.39676 9.30399,13.59036 3.65527,0.54815 4.66257,1.10675 4.66257,2.58566 0,3.13378 5.31212,2.42932 9.51629,-1.26199 4.22349,-3.70827 6.48371,-7.70215 6.48371,-11.45688 0,-2.65517 -0.0372,-2.67102 -2.03121,-0.86643 -1.3908,1.25865 -3.83429,1.90599 -7.75,2.05315 -3.14533,0.11821 -7.34212,0.5275 -9.3262,0.90953 -2.79456,0.53808 -3.74264,0.34222 -4.20751,-0.86923 -1.53342,-3.99601 5.23949,-6.07074 25.07615,-7.68152 12.00843,-0.97512 12.50963,-1.10862 14.92119,-3.97459 3.0084,-3.57529 5.31758,-3.84985 5.31758,-0.63225 0,1.28333 0.23558,2.56891 0.5235,2.85683 1.32558,1.32558 5.88169,-0.8145 10.75387,-5.05127 2.93404,-2.55139 8.57192,-6.18833 12.52862,-8.08209 l 7.19401,-3.44319 v -4.77163 c 0,-3.63106 0.44528,-5.00992 1.86285,-5.76859 2.12219,-1.13575 4.77078,-6.7731 3.68999,-7.85389 -0.394,-0.394 -1.29168,0.0704 -1.99484,1.03206 -1.28481,1.75708 -3.56379,2.3978 -3.55131,0.99843 0.009,-0.97262 13.21226,-8.16561 16.9641,-9.24162 3.02608,-0.86787 4.02921,0.10768 4.02921,3.91842 0,2.72512 3.41497,5.18505 8.06368,5.80857 l 4.21891,0.56587 -2.08236,-2.90062 c -1.14529,-1.59534 -2.22138,-3.77661 -2.39129,-4.84727 -0.28848,-1.81775 0.2539,-1.92869 8.19106,-1.67547 11.58211,0.36952 20.25236,-1.33026 29.07455,-5.69998 8.29845,-4.1103 10.23876,-6.39753 14.6293,-17.24498 1.53789,-3.79955 3.05761,-6.91382 3.37717,-6.92059 0.31956,-0.007 1.1896,1.12482 1.93342,2.51466 0.74382,1.38984 2.44235,2.80054 3.77451,3.13489 2.78413,0.69877 8.98533,-1.91007 9.84109,-4.14016 0.31263,-0.81468 2.09876,-2.42705 3.96919,-3.58304 1.87042,-1.15599 3.40077,-2.4802 3.40077,-2.94268 0,-1.32953 -6.75671,-3.20799 -8.98969,-2.49927 -1.11161,0.35281 -3.37671,1.78214 -5.03357,3.1763 -2.20028,1.85141 -3.68394,2.36629 -5.50303,1.90973 -2.26949,-0.56961 -2.4353,-0.97076 -1.86789,-4.51916 0.57577,-3.60063 0.39175,-4.01349 -2.4419,-5.47883 -1.88179,-0.97311 -5.5925,-1.58477 -9.61426,-1.58477 -4.70639,0 -6.4793,-0.35178 -6.29966,-1.25 0.35118,-1.75587 -6.30239,-2.27355 -7.37982,-0.57418 -1.57346,2.48174 -0.8745,4.62674 1.87982,5.76886 1.5125,0.62718 4.21572,1.92155 6.00716,2.87639 3.09319,1.64867 3.16968,1.82352 1.51954,3.47366 -1.45007,1.45007 -1.53079,2.06876 -0.48781,3.73884 1.0903,1.74584 0.96019,2.11329 -1.01955,2.87936 -11.03711,4.27084 -18.47569,7.43268 -19.51934,8.29689 -0.71671,0.59348 -1.25,3.32929 -1.25,6.41263 v 5.37755 h -7.62244 c -6.57235,0 -7.45537,-0.20131 -6.4097,-1.46127 0.66702,-0.8037 2.07212,-1.73403 3.12245,-2.06739 3.88585,-1.23332 2.00045,-3.22955 -3.726,-3.94502 -5.00649,-0.62552 -6.25969,-0.38501 -11.22486,2.15427 -3.7111,1.89793 -6.53638,4.26878 -8.40812,7.05573 -2.59369,3.86191 -3.54031,4.41381 -11.84578,6.90637 -7.60227,2.28152 -8.95155,2.99693 -8.54981,4.53318 0.41456,1.58527 -0.19817,1.83334 -4.67936,1.89442 -2.83601,0.0386 -6.05638,0.45053 -7.15638,0.91527 -1.77059,0.74807 -1.62885,0.92607 1.23579,1.55188 3.93617,0.85988 8.26421,4.67246 8.26421,7.27996 0,2.91581 -3.53269,6.77846 -7.7385,8.46129 -5.20902,2.08424 -17.69777,3.85733 -28.2037,4.00422 -10.65864,0.14903 -14.03914,-1.42396 -14.0894,-6.55596 l -0.0316,-3.22695 -2.38542,2.7093 c -5.09706,5.7891 1.29999,11.55554 13.87423,12.50653 4.18875,0.31679 7.41661,0.77529 7.17302,1.01888 -0.2436,0.2436 -2.35231,0.87191 -4.68603,1.39627 -3.92998,0.883 -4.86852,0.6366 -12.71726,-3.33881 -8.17515,-4.14074 -8.77792,-4.28632 -17.08473,-4.1265 -9.2944,0.17883 -20.72418,2.74881 -28.6936,6.45173 -7.78983,3.61947 -16.23654,12.85537 -21.8419,23.8826 -7.34439,14.44838 -11.41878,17.59951 -17.36805,13.43248 -5.81005,-4.06952 -10.07972,2.14135 -4.51228,6.56378 2.51807,2.00021 3.60332,2.17498 10.60184,1.70739 9.84361,-0.65768 9.2891,0.21402 -4.55512,7.16068 -15.73691,7.89636 -37.62058,11.81102 -38.55371,6.89668 -0.20684,-1.08932 0.63038,-2.17667 2.24101,-2.91052 3.28359,-1.4961 3.28274,-3.56917 -0.002,-5.06584 -2.03329,-0.92643 -3.43076,-0.86947 -6.65941,0.27144 -5.41981,1.9152 -8.20432,5.67764 -7.28835,9.84803 0.91814,4.18026 5.16847,9.09683 7.85996,9.09201 1.1886,-0.002 7.96093,-1.1398 15.04961,-2.52816 7.08868,-1.38836 13.12159,-2.2912 13.40647,-2.00632 0.7514,0.75139 -2.79178,8.23386 -5.98894,12.64741 -3.06443,4.23033 -8.8311,6.60344 -13.31293,5.47857 -2.25582,-0.56617 -2.58893,-1.06969 -2.07154,-3.13115 0.82628,-3.29217 -1.3387,-3.23853 -5.34484,0.13242 -3.75325,3.15815 -3.87879,5.30923 -0.4953,8.48679 2.25393,2.11676 3.55427,2.43156 10.25,2.48144 7.32936,0.0546 7.65458,0.15504 7.35226,2.2704 -0.52725,3.68922 7.93166,6.31994 14.58739,4.53668 z m 1.88531,-15.11421 c -1.03147,-1.67574 -1.83203,-10.25 -0.95702,-10.25 1.24278,0 6.30063,5.33809 6.30063,6.64973 0,1.08496 -3.20486,4.35027 -4.26972,4.35027 -0.33673,0 -0.81998,-0.3375 -1.07389,-0.75 z M 846.45287,606.03433 c 0.3785,-2.02643 0.77114,-3.77001 0.87255,-3.87463 0.1014,-0.10463 3.25615,-1.56845 7.01055,-3.25293 3.7544,-1.68448 8.15721,-4.01047 9.78402,-5.16886 1.62681,-1.1584 3.1865,-1.8775 3.46598,-1.59802 0.78868,0.78868 -1.38684,7.94414 -3.19942,10.52315 -1.83239,2.6072 -4.3369,3.72324 -12.77034,5.69063 l -5.85151,1.36506 z m 47.5098,-21.21579 c 0,-1.28894 2.84908,-2.45288 3.76417,-1.53778 0.37285,0.37285 0.0159,1.09655 -0.79313,1.60822 -1.93575,1.22421 -2.97104,1.19966 -2.97104,-0.0704 z m -120.07258,52.39652 c 4.02077,-5.11157 1.5755,-9.64452 -3.96473,-7.34968 -4.70683,1.94963 -6.18576,5.61861 -3.39126,8.41311 2.31046,2.31046 5.00895,1.92035 7.35599,-1.06343 z m -498.12742,-2.56514 c 2.16715,-2.16714 1.26179,-4.39699 -2.68615,-6.61586 -4.58107,-2.5747 -7.66487,-2.79654 -8.50327,-0.6117 -1.8375,4.78844 7.55906,10.85793 11.18942,7.22756 z m -147.8,-47.3 c -5.86911,-5.94293 -8.55717,-6.75178 -11.52817,-3.46887 -1.7001,1.8786 -1.71557,2.15371 -0.20588,3.6634 1.50969,1.50968 1.5878,1.46222 1.04015,-0.632 -0.47869,-1.83052 -0.22949,-2.19593 1.30089,-1.90755 1.04116,0.19619 2.33722,1.36658 2.88014,2.60086 0.76264,1.73381 1.81502,2.24416 4.62756,2.24416 2.01598,0 4.19592,0.66934 4.88531,1.5 0.68469,0.825 1.51192,1.5 1.83829,1.5 0.32636,0 -1.85086,-2.475 -4.83829,-5.5 z M 876.76813,567.2075 c 0.38299,-2.68626 -3.78411,-5.7985 -11.30153,-8.44066 -5.53046,-1.94381 -11.50393,-2.54439 -11.50393,-1.15663 0,0.86971 12.72994,10.67021 15,11.54817 0.825,0.31907 2.85,0.4927 4.5,0.38584 2.22794,-0.1443 3.07861,-0.74566 3.30546,-2.33672 z M 186.96267,527.75229 c 0.9336,-0.5403 0.1784,-0.63383 -2,-0.2477 -1.925,0.34122 -4.175,1.02808 -5,1.52636 -1.95269,1.17938 4.92284,-0.0765 7,-1.27866 z m 218.01078,205.61062 c -1.65284,-1.99155 -0.50102,-6.18025 2.07917,-7.56113 3.43668,-1.83925 4.91005,-0.4839 4.91005,4.51676 0,4.32535 -0.13083,4.53138 -2.87755,4.53138 -1.58266,0 -3.43291,-0.66915 -4.11167,-1.48701 z m 129.98922,-5.11875 c -26.60704,-18.15686 -66.68167,-42.26976 -95,-57.16148 -43.78357,-23.02441 -96.6497,-43.44117 -152,-58.70201 -50.14824,-13.82656 -60.68639,-16.84041 -73.1976,-20.93411 -21.94665,-7.18098 -39.8024,-15.71288 -39.8024,-19.01852 0,-1.88771 8.7251,-12.23829 30.18838,-35.81249 16.73208,-18.37769 18.31815,-19.83857 23.07096,-21.25 2.80701,-0.8336 5.17935,-1.51563 5.27184,-1.51563 0.0925,0 0.45877,4.43421 0.81394,9.85379 0.86936,13.26576 4.67699,27.64912 10.36297,39.14621 6.43752,13.01672 17.03685,23.80969 29.30431,29.83967 8.40207,4.12998 21.75888,8.16033 27.04377,8.16033 1.50494,0 6.04546,1.55712 10.09004,3.46027 15.99964,7.5285 33.0908,11.00305 53.35379,10.84658 18.81401,-0.14528 34.79561,-3.1106 64.62306,-11.99052 1.21156,-0.36069 1.79197,0.41717 2.28928,3.06809 0.36643,1.95321 1.35569,4.24076 2.19837,5.08344 3.33543,3.33542 18.43038,1.19832 37.50227,-5.30945 l 8.61297,-2.93895 9.49568,3.30841 c 11.52028,4.01381 26.57392,10.35784 37.02837,15.60481 4.2625,2.13931 7.75,3.48935 7.75,3.00009 0,-2.43752 -21.48052,-16.63598 -33.72993,-22.29523 -4.89116,-2.25972 -8.17288,-4.32274 -7.6626,-4.81701 1.87711,-1.81822 23.21187,-11.02053 25.55015,-11.02053 1.85953,0 3.58156,1.53206 7.08478,6.3032 5.23401,7.12836 11.95456,19.34208 13.72688,24.9468 1.91711,6.06257 3.03072,4.34392 3.03072,-4.67733 0,-7.65085 -0.31566,-9.03294 -3.4259,-15 -1.88425,-3.61497 -3.29013,-6.57267 -3.12417,-6.57267 0.16596,0 9.21714,2.70871 20.11373,6.01934 28.54103,8.67143 37.1568,10.33333 53.43634,10.30737 11.22409,-0.0179 14.84869,-0.41984 21.5,-2.3842 6.84372,-2.02118 9.74181,-2.31965 20.05108,-2.06504 25.46191,0.62885 44.86446,-5.58025 64.94892,-20.78459 18.31081,-13.86165 35.1573,-35.41038 40.572,-51.89656 1.20963,-3.68297 2.30517,-6.82571 2.43453,-6.98385 0.12937,-0.15815 4.67809,1.13565 10.10829,2.87509 24.27625,7.77638 38.97874,17.81121 60.45173,41.25984 5.4634,5.96607 9.93345,11.40778 9.93345,12.09269 0,2.66327 -30.59504,17.82427 -49.5,24.52913 -4.95,1.75557 -17.35962,5.38129 -27.57693,8.05714 -89.45931,23.42888 -145.26392,53.13695 -199.52699,106.21994 -8.85716,8.66454 -16.50716,15.72605 -17,15.69226 -0.49284,-0.0338 -5.17108,-2.97873 -10.39608,-6.54432 z m -339,-111.88164 -5.5,-2.43228 7.31955,-0.0402 c 7.01901,-0.0385 7.30643,0.0518 7,2.19963 -0.43714,3.06403 -2.37254,3.12389 -8.81955,0.27281 z m 146.38323,-8.97117 c -9.97242,-1.54891 -22.24094,-4.50218 -22.85927,-5.50266 -0.25203,-0.40779 3.68948,-1.01888 8.75891,-1.35798 11.62584,-0.77765 24.47086,-3.01966 32.21713,-5.62327 4.49099,-1.50947 5.07343,-1.88777 2.31586,-1.50414 -32.72715,4.55297 -67.88771,0.29144 -89.01483,-10.78878 -18.03075,-9.45631 -28.87743,-31.42823 -30.51162,-61.80676 -1.33942,-24.89904 5.98638,-40.99278 21.42188,-47.06086 4.8581,-1.90984 7.71787,-2.281 17.78871,-2.30875 18.96557,-0.0523 31.94098,3.66844 62.83937,18.01926 13.99422,6.49964 16.01202,7.18398 17.32143,5.87457 2.07319,-2.07319 17.25892,-1.99203 24.40604,0.13043 8.04924,2.39037 17.59898,7.49029 32.04311,17.11222 7.09677,4.7275 13.15668,8.342 13.46646,8.03222 0.30979,-0.30979 -2.06314,-3.24734 -5.27317,-6.5279 -6.28184,-6.41987 -19.17324,-15.37096 -24.82247,-17.23537 -10.37106,-3.42276 5.15796,-3.84564 18.01923,-0.49069 5.89033,1.53653 20.55769,8.46148 43.64607,20.60676 22.74975,11.96714 13.86399,4.63188 -18.02852,-14.88268 -4.73965,-2.90013 -12.43497,-6.72513 -17.10072,-8.5 -5.67292,-2.15801 -7.74913,-3.33215 -6.26735,-3.54432 1.21871,-0.17451 3.52405,-1.90438 5.12298,-3.84416 3.43644,-4.169 1.26948,-4.97314 22.55694,8.37065 26.62123,16.68718 34.87231,19.67656 54.0706,19.5898 9.60759,-0.0434 13.99368,-0.57623 22,-2.67252 10.26079,-2.68657 27.59196,-10.64575 33.00914,-15.15912 l 2.99086,-2.49186 -3,0.6303 c -1.65,0.34667 -7.95,2.58151 -14,4.96631 -12.93252,5.09777 -19.73442,6.97252 -28.83236,7.94682 -7.21596,0.77277 -18.43047,-0.20222 -17.03146,-1.48071 0.4751,-0.43417 5.36382,-2.25858 10.86382,-4.05424 21.53992,-7.03242 32.5,-15.65916 32.5,-25.58091 0,-2.6519 -0.14786,-2.5615 -2.89483,1.77002 -6.76139,10.66161 -18.86787,15.82689 -37.09537,15.82689 -9.53188,0 -12.73683,-1.39003 -5.76405,-2.49995 12.73005,-2.02635 27.25509,-8.25144 32.75425,-14.03771 l 3.5,-3.68273 -5.5,3.45311 c -7.5969,4.76961 -14.09955,6.82774 -23.6292,7.47877 l -8.1292,0.55535 -11.8708,-5.50593 c -16.82424,-7.80344 -46.3708,-17.01451 -46.3708,-14.45598 0,0.29261 3.0375,1.53221 6.75,2.75468 12.90171,4.24833 31.02358,14.55975 36.7204,20.89406 l 1.97041,2.1909 -5.47041,-2.14424 c -3.00872,-1.17933 -9.2954,-3.85896 -13.9704,-5.95473 -8.61044,-3.86001 -21.22418,-8.42329 -26.25,-9.49648 -3.14024,-0.67055 -3.346,-1.94537 -1.37983,-8.54912 0.98952,-3.32348 1.90777,-4.58448 3.51218,-4.82313 2.14913,-0.31968 2.14369,-0.35711 -0.50839,-3.5 -4.14197,-4.90852 -8.9058,-15.67655 -14.10523,-31.88311 -2.61039,-8.13657 -5.0204,-14.79376 -5.35557,-14.79376 -0.33518,0 -1.46525,1.90157 -2.51128,4.2257 -3.11157,6.91347 -10.13354,15.64818 -15.12419,18.81315 -6.57475,4.16959 -10.18777,3.9056 -21.06405,-1.53909 l -8.98967,-4.50024 -7.86198,8.10184 c -8.89457,9.16593 -21.11815,19.33785 -26.08384,21.70583 -3.09293,1.47491 -3.73045,1.45324 -8.89556,-0.30243 -7.70775,-2.61995 -19.06565,-10.31499 -25.52868,-17.29584 -2.98339,-3.22242 -10.0406,-12.65304 -15.68269,-20.95692 -5.64209,-8.30389 -12.09783,-16.75985 -14.3461,-18.79103 l -4.08777,-3.69305 -8.61867,0.51367 c -4.74027,0.28252 -12.30939,1.09819 -16.82027,1.8126 l -8.20159,1.29892 -9.29841,-4.63674 c -5.11412,-2.55021 -10.82146,-5.92096 -12.68296,-7.49057 -3.27412,-2.76071 -3.32512,-2.91327 -1.56288,-4.6755 1.48811,-1.48812 2.78215,-1.70879 7.06727,-1.20516 2.88508,0.33909 6.40088,0.17728 7.81288,-0.35956 2.28917,-0.87034 2.56728,-1.5238 2.56728,-6.03221 0,-7.72057 4.30263,-7.99152 7.44578,-0.46889 2.10784,5.04476 4.40368,4.89495 16.58214,-1.08202 6.03464,-2.9617 10.97208,-5.74785 10.97208,-6.19144 0,-0.4436 -0.92609,-1.59948 -2.05799,-2.56864 -1.53235,-1.31204 -1.97932,-2.70972 -1.75,-5.47224 0.40086,-4.82885 3.49741,-5.49071 7.99252,-1.70832 1.72961,1.45537 4.87646,3.33902 6.993,4.18589 4.60735,1.8435 6.82469,4.77443 9.77504,12.92093 3.08904,8.5294 11.56878,16.58709 31.91541,30.32689 l 16.36798,11.05308 6.63202,-7.18954 c 3.64761,-3.95425 6.56428,-7.88919 6.48148,-8.74431 -0.0828,-0.85512 -1.3108,-4.70476 -2.7289,-8.55476 -3.20147,-8.69163 -3.39941,-14.72115 -0.57597,-17.54458 1.12452,-1.12452 6.41202,-4.874 11.75,-8.33216 12.07323,-7.82154 20.50396,-15.12106 27.66074,-23.94929 4.16769,-5.14106 5.32125,-7.23925 4.67316,-8.5 -1.42398,-2.77017 -2.2402,-11.85114 -1.53978,-17.13116 l 0.6576,-4.9572 4.62684,-0.6441 c 13.09933,-1.82355 47.22691,-10.48523 54.04163,-13.71592 3.36651,-1.59597 7.46934,-9.98868 9.88743,-20.22559 l 1.8897,-8 0.71277,4.73304 c 1.05427,7.00065 6.56275,17.05569 15.21165,27.76696 9.82669,12.16992 17.60442,24.03176 22.01069,33.56854 3.8254,8.27957 6.049,17.53852 9.4097,39.18146 2.07831,13.38435 2.34744,14.25 4.43038,14.25 1.92384,0 2.56094,-1.15929 4.80862,-8.75 1.42504,-4.8125 3.30596,-12.14447 4.17984,-16.29327 2.96556,-14.07917 9.55245,-24.12726 21.79616,-33.24936 5.38878,-4.01488 5.2544,-8.4543 -0.50172,-16.57502 -2.3375,-3.29774 -6.5,-9.1623 -9.25,-13.03236 -2.75,-3.87005 -5.28501,-7.05076 -5.63337,-7.06823 -0.34835,-0.0175 -0.88675,0.93719 -1.19644,2.12146 -0.69202,2.64626 1.0373,6.12425 7.93597,15.96081 8.16112,11.63662 8.23431,12.09442 2.59918,16.25676 -11.42963,8.44238 -17.84259,18.05026 -21.28443,31.88825 l -2.29845,9.24096 -1.74375,-11.53631 c -3.41639,-22.60218 -9.53643,-34.70439 -30.35227,-60.02075 -10.68358,-12.99344 -14.52644,-20.28621 -14.52644,-27.56748 0,-4.3921 0.36713,-5.50157 2.13326,-6.44677 3.72833,-1.99535 16.86674,1.3671 16.86674,4.31662 0,0.74105 -1.54356,3.79545 -3.43014,6.78756 -1.88657,2.9921 -3.30098,5.56934 -3.14312,5.7272 0.15785,0.15786 1.01231,0.009 1.8988,-0.33149 2.79036,-1.07077 7.61532,-9.52185 8.85049,-15.50195 0.91515,-4.43074 2.34798,-7.18572 6.25551,-12.02781 6.86231,-8.50358 11.09645,-10.49804 28.70976,-13.52356 15.55072,-2.67123 26.00028,-5.14182 35.26525,-8.33779 9.09954,-3.13889 8.98622,-3.21218 8.26295,5.34413 -0.39306,4.64989 -1.62334,9.68594 -3.32443,13.60834 -2.61309,6.02528 -2.65671,6.42545 -1.34814,12.3684 2.34698,10.65889 2.11544,11.88135 -2.49693,13.18319 -2.93268,0.82774 -4.0874,1.72293 -4.32756,3.35488 -0.18016,1.22424 -0.96766,2.47152 -1.75,2.77173 -0.78234,0.30021 -1.42244,1.23559 -1.42244,2.07861 0,0.84302 -0.72032,2.05948 -1.60071,2.70324 -1.44973,1.06007 -1.40292,1.4949 0.49626,4.61024 2.45918,4.03391 2.61696,8.18785 0.62445,16.43977 -0.79681,3.3 -1.46478,6.2627 -1.48438,6.58379 -0.0621,1.01743 10.24733,7.6937 15.96438,10.33838 3.025,1.39935 8.81771,3.28427 12.87268,4.18872 l 7.37267,1.64446 -0.6439,5.47863 c -0.35415,3.01325 -1.81712,7.87465 -3.25105,10.80311 l -2.60713,5.32447 3.24574,5.31922 c 7.6521,12.54048 15.69773,19.61286 31.15406,27.38549 10.90395,5.48334 13.16172,8.12416 12.27917,14.36242 -0.3557,2.51422 -1.74791,7.37334 -3.0938,10.79805 l -2.44708,6.22674 5.21537,8.00722 c 4.37365,6.71494 5.71469,8.07575 8.30932,8.43181 13.45613,1.84661 19.41004,3.27258 36.09395,8.64456 17.06882,5.49591 19.64095,6.07028 25.30601,5.65098 3.46831,-0.2567 6.50058,-0.6613 6.73839,-0.89911 0.89565,-0.89565 -1.79831,-17.42937 -3.36899,-20.67659 -0.90123,-1.8632 -4.85026,-6.27347 -8.77561,-9.80059 -3.92536,-3.52712 -8.31189,-8.57158 -9.74786,-11.20993 -2.9541,-5.42766 -3.3594,-9.5436 -2.22563,-22.60183 l 0.78142,-9 -3.10386,-4.24134 c -3.64632,-4.98258 -3.79374,-5.90493 -1.0814,-6.76579 2.98171,-0.94636 7.7904,0.38989 10.02162,2.78483 1.72233,1.8487 1.95591,3.57448 1.95591,14.4507 0,17.04403 0.73541,18.4373 14.83925,28.11383 l 7.33924,5.0354 5.27513,-4.18881 c 2.90132,-2.30385 6.93762,-5.46661 8.96955,-7.02836 2.03193,-1.56175 4.13484,-3.99792 4.67312,-5.41371 0.83942,-2.20784 0.54643,-3.02015 -2.0588,-5.70807 -1.67062,-1.72364 -3.03749,-3.89715 -3.03749,-4.83001 0,-2.37422 7.07244,-7.23767 12.51964,-8.6093 5.20576,-1.31082 6.2192,-2.90143 4.49728,-7.05852 -1.41426,-3.41433 -0.19405,-8.27464 3.1422,-12.516 2.42813,-3.08687 3.88113,-2.32645 6.91397,3.61842 2.20591,4.32394 2.42418,7.08761 0.76909,9.73784 -1.87553,3.0032 -0.32625,4.83625 5.52535,6.53736 6.0977,1.77265 11.63247,5.81942 11.63247,8.50513 0,0.96019 -1.35,2.94866 -3,4.41882 -1.65,1.47016 -3,3.24441 -3,3.94279 0,2.23403 2.99528,5.64821 8.56487,9.76272 11.20382,8.27674 15.62029,14.38247 17.47415,24.15781 1.96974,10.38641 -2.52186,23.62786 -10.26213,30.25324 -3.27425,2.80264 -3.70474,3.65177 -3.18042,6.27337 0.54557,2.72782 0.16986,3.33105 -3.74503,6.01298 -8.88925,6.08964 -19.39891,10.21388 -26.10144,10.2428 -3.29527,0.0142 -3.47847,1.04361 -0.64191,3.60689 3.26595,2.95129 6.67336,10.48829 8.00227,17.7005 4.31513,23.41904 -14.57117,55.28963 -46.19423,77.95266 -16.92563,12.12995 -32.839,18.80554 -47.91613,20.10061 -6.35181,0.5456 -6.44379,0.51949 -4.03471,-1.14523 15.57941,-10.76565 36.45767,-27.11394 35.6537,-27.9179 -0.21085,-0.21086 -3.24889,1.59686 -6.75118,4.01714 -10.21148,7.05672 -31.03322,18.52639 -41.0864,22.63248 -24.42925,9.97778 -38.87812,9.53984 -76.87101,-2.32995 -24.58207,-7.67996 -32.7702,-9.60007 -40.9503,-9.60281 -9.77848,-0.003 -15.63219,1.59263 -36.36519,9.91426 -22.79775,9.15036 -35.88956,13.28377 -42.59491,13.44828 l -5.5,0.13494 -0.31475,-3.26868 c -0.73947,-7.67932 8.9117,-21.38765 22.00243,-31.2518 9.24,-6.96255 25.42373,-15.21497 35.30914,-18.00486 8.69054,-2.45266 22.35749,-2.65029 28.62746,-0.41394 7.45213,2.65799 11.01824,1.43167 42.357,-14.56576 32.26078,-16.46811 46.46806,-22.71813 68.07239,-29.94618 20.03857,-6.70421 20.56531,-7.617 2.30439,-3.99335 -12.39296,2.45923 -32.7661,9.10349 -45.85806,14.9556 -5.225,2.33558 -19.175,9.33715 -31,15.55905 -29.52125,15.53304 -28.53182,15.19328 -36.56508,12.55614 -12.13699,-3.98429 -27.67143,-2.30474 -44.6454,4.82697 l -7.24384,3.04353 -12.02284,-5.9516 c -20.49389,-10.14498 -35.42199,-14.31926 -70.10548,-19.60331 -1.69545,-0.2583 -10.86429,-5.63243 -20.37519,-11.94251 -24.0017,-15.9241 -34.48759,-20.59233 -50.82694,-22.62772 -6.44102,-0.80236 -8.79705,-1.54431 -10.58665,-3.33391 -4.06715,-4.06715 -16.76584,-5.76063 -23.1607,-3.08869 -4.23066,1.76768 -4.53703,2.94476 -0.53784,2.06639 3.51336,-0.77167 14.63474,1.2553 16.01545,2.91895 0.72086,0.86859 -0.58639,1.50445 -4.94283,2.40426 -9.25492,1.91157 -8.32572,3.16142 2.35036,3.16142 11.3186,0 21.341,1.7876 33.87662,6.04225 16.91419,5.74076 45.70868,21.02256 40.996,21.75739 -2.3123,0.36054 -24.37645,-3.30109 -32.58626,-5.40782 -3.22334,-0.82715 -6.05315,-1.31138 -6.28846,-1.07607 -0.78548,0.78549 8.53954,4.66124 17.39496,7.22986 4.81477,1.39658 14.15412,3.47285 20.75412,4.61393 11.14028,1.92606 12.50151,2.41525 19,6.82809 7.78641,5.28741 17.43517,10.41054 18.18836,9.65734 0.44828,-0.44827 -2.11647,-2.95918 -10.18836,-9.97446 -1.68116,-1.4611 -2.39581,-2.6212 -1.62564,-2.63891 4.12962,-0.095 27.2935,5.44609 37.647,9.00557 10.91913,3.75392 29.48119,12.50071 29.47685,13.89003 -9.8e-4,0.31504 -2.11158,1.90578 -4.69022,3.53497 -10.31996,6.52019 -22.40169,20.05824 -24.98425,27.99585 -1.1333,3.48323 -4.48994,4.83853 -25.04813,10.11355 -23.77587,6.10066 -48.0165,7.90165 -66.89238,4.96986 z M 597.46267,500.38727 c 13.47456,-2.72671 28.42581,-4.53735 37.46691,-4.53735 5.14772,0 7.93863,-0.82819 18.78941,-5.57569 25.99135,-11.37189 44.35665,-17.42431 52.87191,-17.42431 4.92557,0 4.12392,-1.39927 -1.87823,-3.27843 -4.42506,-1.38541 -10.12107,-1.63053 -36.25,-1.55999 -23.1529,0.0625 -34.01894,-0.32066 -42.92635,-1.51371 -11.12465,-1.49002 -12.15516,-1.81756 -15.33007,-4.87263 -2.53093,-2.43539 -16.78483,-20.46665 -17.83022,-22.55532 -0.0771,-0.15404 -3.89034,1.53346 -8.47387,3.75 -11.13333,5.38396 -14.52447,5.36498 -21.63541,-0.12107 -2.95936,-2.28313 -6.50692,-5.48964 -7.88347,-7.12557 -1.37654,-1.63593 -2.69111,-2.78611 -2.92127,-2.55595 -0.23015,0.23015 0.68834,3.9038 2.0411,8.16366 3.51663,11.07394 3.30278,13.79891 -1.49107,18.99962 l -3.95062,4.28593 3.57224,7.17988 c 1.96474,3.94894 6.55502,10.56377 10.20063,14.69962 l 6.62838,7.51974 8,-0.53493 c 8.38628,-0.56076 19.78812,1.21307 19.40652,3.01915 -0.11621,0.55 -3.46735,1.54997 -7.44698,2.22216 -7.92111,1.33793 -16.15138,4.15333 -21.20954,7.25533 -6.00196,3.6808 -3.32734,3.82066 7.5,0.39217 5.9125,-1.87219 16.15,-4.49673 22.75,-5.83231 z m -460.5,81.96265 c 0,-0.275 0.225,-0.5 0.5,-0.5 0.275,0 0.5,0.225 0.5,0.5 0,0.275 -0.225,0.5 -0.5,0.5 -0.275,0 -0.5,-0.225 -0.5,-0.5 z m 682.5,-36.01811 -8,-7.42548 4,0.5632 c 2.2,0.30976 5.56363,1.04034 7.47474,1.62352 1.9111,0.58317 8.2111,1.35499 14,1.71515 l 10.52526,0.65483 -4.5,2.12281 c -2.475,1.16755 -3.9375,2.1546 -3.25,2.19345 0.6875,0.0389 1.25,0.54719 1.25,1.12965 0,0.58246 -0.43961,0.78732 -0.97692,0.45524 -1.52463,-0.94227 -9.06175,1.42294 -9.68156,3.03815 -0.95747,2.49513 -2.61008,1.56979 -10.84152,-6.07052 z m 9.5,0.0181 c 0,-0.275 -0.225,-0.5 -0.5,-0.5 -0.275,0 -0.5,0.225 -0.5,0.5 0,0.275 0.225,0.5 0.5,0.5 0.275,0 0.5,-0.225 0.5,-0.5 z m -374.5,-55.51337 c -9.35,-4.92129 -18.4625,-9.23162 -20.25,-9.57851 -1.88789,-0.36637 -3.25,-1.24027 -3.25,-2.08515 0,-2.4309 1.97651,-5.32297 3.63783,-5.32297 2.20196,0 17.03559,7.16447 21.98932,10.62058 9.04058,6.30742 18.35193,15.47256 15.59147,15.34664 -0.39524,-0.018 -8.36862,-4.05929 -17.71862,-8.98059 z M 254.56273,284.06501 c 3.19971,-13.99779 14.32052,-24.39174 26.3357,-24.61437 5.10723,-0.0946 5.57563,0.10464 7.75,3.29717 3.20631,4.70766 3.02248,8.46162 -0.53855,10.99729 -1.56903,1.11725 -7.75653,3.18379 -13.75,4.5923 -6.78821,1.59529 -12.69216,3.66985 -15.6575,5.50182 l -4.76029,2.94089 z m 38.84892,-21.68297 c -2.79518,-6.68979 -0.64806,-12.15977 3.24493,-8.26678 1.60706,1.60705 3.25244,8.39562 2.54749,10.51047 -0.86432,2.59295 -4.33293,1.24938 -5.79242,-2.24369 z m 7.97456,-5.87078 c -0.90281,-2.35267 0.15808,-3.42135 6.64929,-6.6981 6.73832,-3.40149 14.51419,-5.38627 27.22731,-6.94972 4.84008,-0.59522 11.13101,-2.00097 13.97984,-3.12388 11.87059,-4.67895 26.0772,-16.8603 35.73375,-30.63964 2.54753,-3.63518 5.11541,-6.25 6.13782,-6.25 1.25312,0 1.93788,-1.0767 2.38491,-3.75 2.08036,-12.44056 6.41358,-22.1441 13.06336,-29.25326 11.26117,-12.0391 32.71165,-14.83757 57.42961,-7.49237 4.65881,1.38441 13.42057,2.9717 19.47057,3.5273 23.76034,2.18205 29.62701,3.03286 36.95197,5.35897 9.22334,2.92895 19.59732,8.94395 26.71822,15.49163 l 5.2899,4.86408 -8.48004,4.23265 c -16.10567,8.03881 -32.23456,22.13482 -47.75285,41.7341 -4.44759,5.61721 -8.51247,10.97423 -9.03307,11.9045 -1.21299,2.16749 -4.19413,1.11709 -4.19413,-1.4778 0,-1.22236 -0.92013,-2.15392 -2.52543,-2.55683 -3.45414,-0.86693 -13.06561,-10.7164 -18.23587,-18.68743 -4.6457,-7.1623 -4.97331,-7.39322 -16.84099,-11.87036 -10.02333,-3.78135 -16.43349,-7.94932 -20.28926,-13.19236 l -2.95866,-4.02315 -1.58558,3.06616 c -3.03875,5.87631 -9.13272,9.24939 -11.06421,6.12417 -1.23693,-2.0014 -2.44717,-0.90992 -3.55568,3.20677 -3.03662,11.27715 -17.8868,24.74401 -37.32548,33.84853 -11.54907,5.40926 -20.55802,7.62959 -36.33093,8.95408 -12.08073,1.01445 -20.06521,2.31975 -28.02576,4.58167 -1.53689,0.43669 -2.42602,0.14548 -2.83861,-0.92971 z m 266.95146,-15.78634 c 0.34375,-1.71875 0.625,-5.93121 0.625,-9.36104 v -6.23603 l 4.50049,-2.38751 c 4.76021,-2.52529 5.4098,-4.49036 1.4019,-4.24087 -1.32132,0.0822 -8.25239,2.18249 -15.40239,4.6672 -7.15,2.48471 -21.1,6.32177 -31,8.52678 -9.9,2.20502 -19.67344,4.71745 -21.71875,5.58317 -5.57014,2.35767 -4.18663,0.30694 7.18259,-10.64643 17.92979,-17.27398 32.71275,-26.8089 49.93713,-32.20914 l 8.40096,-2.63389 3.84136,2.66206 c 11.06947,7.67115 14.75971,22.79712 8.54212,35.0134 -2.66772,5.24152 -4.89179,7.58058 -11.16754,11.74492 -5.1245,3.40041 -5.90483,3.32718 -5.14287,-0.48262 z" id="path243"/></g></svg>